<?xml version="1.0" encoding="UTF-8" standalone="no"?>
<svg width="200" height="200" viewBox="0 0 200 200" xmlns="http://www.w3.org/2000/svg">
  <!-- Background cloud -->
  <path d="M150,120 C170,120 185,105 185,85 C185,65 170,50 150,50 C150,30 135,15 115,15 C95,15 80,30 80,50 C60,50 45,65 45,85 C45,105 60,120 80,120 Z" fill="#f0f4f8" stroke="#4a6fa5" stroke-width="3"/>
  
  <!-- Word cloud text elements -->
  <text x="100" y="70" font-family="Arial, sans-serif" font-size="18" font-weight="bold" text-anchor="middle" fill="#3273dc">Chat</text>
  <text x="130" y="90" font-family="Arial, sans-serif" font-size="14" text-anchor="middle" fill="#4a6fa5">message</text>
  <text x="80" y="85" font-family="Arial, sans-serif" font-size="12" text-anchor="middle" fill="#6c8ebf">topic</text>
  <text x="110" y="105" font-family="Arial, sans-serif" font-size="16" text-anchor="middle" fill="#2160c4">cloud</text>
  <text x="75" y="100" font-family="Arial, sans-serif" font-size="10" text-anchor="middle" fill="#7f9cf5">real-time</text>
  <text x="140" y="75" font-family="Arial, sans-serif" font-size="11" text-anchor="middle" fill="#5a78b1">words</text>
  
  <!-- App name -->
  <text x="100" y="150" font-family="Arial, sans-serif" font-size="24" font-weight="bold" text-anchor="middle" fill="#2160c4">ChatCloud</text>
  
  <!-- Gradient underline -->
  <linearGradient id="gradient" x1="0%" y1="0%" x2="100%" y2="0%">
    <stop offset="0%" stop-color="#3273dc" />
    <stop offset="100%" stop-color="#7f9cf5" />
  </linearGradient>
  <rect x="45" y="155" width="110" height="3" fill="url(#gradient)" rx="1.5" />
</svg>
